<svg height="682pt" viewBox="-170 -21 682 682.66669" width="682pt" xmlns="http://www.w3.org/2000/svg"><path d="m281.289062 251.585938c33.085938-27.796876 51.308594-65.03125 51.308594-104.851563s-18.222656-77.0625-51.308594-104.855469c-32.148437-27.003906-74.6875-41.878906-119.785156-41.878906-45.089844 0-87.628906 14.875-119.777344 41.878906-33.085937 27.792969-51.308593 65.035156-51.308593 104.855469s18.222656 77.054687 51.308593 104.851563c17.796876 14.953124 38.789063 26.183593 61.632813 33.226562v336.4375c0 10.355469 8.394531 18.75 18.75 18.75h72.957031c10.355469 0 18.75-8.394531 18.75-18.75v-19.25h49.21875c10.355469 0 18.75-8.398438 18.75-18.75v-62.042969c0-10.355469-8.394531-18.75-18.75-18.75h-49.21875v-16.152343h49.21875c10.355469 0 18.75-8.398438 18.75-18.75v-62.046876c0-10.351562-8.394531-18.75-18.75-18.75h-49.21875v-100.238281c25.105469-6.875 48.167969-18.710937 67.472656-34.933593zm-253.371093-104.851563c0-60.234375 59.925781-109.234375 133.585937-109.234375 73.667969 0 133.59375 49 133.59375 109.234375 0 60.226563-59.925781 109.226563-133.59375 109.226563-73.660156 0-133.585937-49-133.585937-109.226563zm167.148437 277.523437h49.21875v24.539063h-49.21875c-10.359375 0-18.75 8.398437-18.75 18.75v53.660156c0 10.351563 8.390625 18.75 18.75 18.75h49.21875v24.542969h-49.21875c-10.359375 0-18.75 8.394531-18.75 18.75v19.25h-35.457031v-310.085938c6.804687.695313 13.699219 1.054688 20.652344 1.054688 4.96875 0 9.90625-.195312 14.804687-.554688v112.59375c0 10.355469 8.390625 18.75 18.75 18.75zm0 0"/><path d="m223.878906 113.261719c0-29.082031-27.980468-52.734375-62.375-52.734375-34.386718 0-62.371094 23.652344-62.371094 52.734375 0 29.078125 27.984376 52.734375 62.371094 52.734375 34.394532 0 62.375-23.65625 62.375-52.734375zm-87.246094 0c0-7.191407 10.640626-15.234375 24.871094-15.234375 14.238282 0 24.875 8.042968 24.875 15.234375 0 7.1875-10.636718 15.234375-24.875 15.234375-14.230468 0-24.871094-8.046875-24.871094-15.234375zm0 0"/></svg>